<svg version="1" xmlns="http://www.w3.org/2000/svg" width="320" height="320" viewBox="0 0 240.000000 240.000000"><path d="M104.3 20C91 24.7 83.4 34.5 81 49.8 77.7 70.1 63.7 83.6 42.5 87c-16.9 2.7-28.9 15.2-30.2 31.5-1.3 16.3 10.8 32.4 26.5 35.5 11.1 2.2 17.6 4.5 23.2 8.1 10.2 6.6 16.8 17 19.1 30.4.6 3.8 2 8.9 3 11.2 2.6 6.1 9.4 13 16.4 16.6 5.4 2.8 6.9 3.1 15 3.1s9.6-.3 15.1-3.1c10.8-5.6 17.2-15.2 19.4-28.7 2.5-16 13.1-28.8 28.3-34.2 2.3-.8 7.5-2.1 11.6-2.9 8.5-1.7 14.3-4.8 19.4-10.4 7.9-8.8 10.8-19.6 8.2-30.7-1.8-8-4-11.8-9.9-17.2-7.1-6.5-11.8-8.5-21.8-9-8-.4-9.2-.2-15 2.5-13.3 6.2-19.3 15.2-20.8 31.1-1.4 15.2-8 25.4-20 31.1-4.7 2.2-6.8 2.6-15 2.6-7.8 0-10.3-.5-14.1-2.3-7.1-3.5-12.2-8.4-16-15.4-3.2-5.9-3.4-6.9-3.4-15.8 0-8.4.3-10.1 2.8-14.8 6.5-12.4 14.5-17.7 28.9-19.3 23.4-2.5 36.1-14.8 36.2-34.9.1-6.2-.4-8.6-2.8-13.8-7.4-16-26-24-42.3-18.2z"/></svg>